<svg width="50" height="50" xmlns="http://www.w3.org/2000/svg">

 <g>
  <title>background</title>
  <rect fill="none" id="canvas_background" height="402" width="582" y="-1" x="-1"/>
 </g>
 <g>
  <title>Layer 1</title>
  <path fill="#ffffff" id="svg_1" d="m32.990234,15.986328a1.0001,1.0001 0 0 0 -0.697265,0.306641l-7.292969,7.292969l-7.292969,-7.292969a1.0001,1.0001 0 0 0 -0.716797,-0.302735a1.0001,1.0001 0 0 0 -0.697265,1.716797l7.292969,7.292969l-7.292969,7.292969a1.0001,1.0001 0 1 0 1.414062,1.414062l7.292969,-7.292969l7.292969,7.292969a1.0001,1.0001 0 1 0 1.414062,-1.414062l-7.292969,-7.292969l7.292969,-7.292969a1.0001,1.0001 0 0 0 -0.716797,-1.720703z"/>
 </g>
</svg>