<svg width="488.85" height="488.85" xmlns="http://www.w3.org/2000/svg">

 <g>
  <title>background</title>
  <rect fill="none" id="canvas_background" height="402" width="582" y="-1" x="-1"/>
 </g>
 <g>
  <title>Layer 1</title>
  <g id="svg_1">
   <path fill="white" id="svg_2" d="m244.425,98.725c-93.4,0 -178.1,51.1 -240.6,134.1c-5.1,6.8 -5.1,16.3 0,23.1c62.5,83.1 147.2,134.2 240.6,134.2s178.1,-51.1 240.6,-134.1c5.1,-6.8 5.1,-16.3 0,-23.1c-62.5,-83.1 -147.2,-134.2 -240.6,-134.2zm6.7,248.3c-62,3.9 -113.2,-47.2 -109.3,-109.3c3.2,-51.2 44.7,-92.7 95.9,-95.9c62,-3.9 113.2,47.2 109.3,109.3c-3.3,51.1 -44.8,92.6 -95.9,95.9zm-3.1,-47.4c-33.4,2.1 -61,-25.4 -58.8,-58.8c1.7,-27.6 24.1,-49.9 51.7,-51.7c33.4,-2.1 61,25.4 58.8,58.8c-1.8,27.7 -24.2,50 -51.7,51.7z"/>
  </g>
  <g id="svg_3"/>
  <g id="svg_4"/>
  <g id="svg_5"/>
  <g id="svg_6"/>
  <g id="svg_7"/>
  <g id="svg_8"/>
  <g id="svg_9"/>
  <g id="svg_10"/>
  <g id="svg_11"/>
  <g id="svg_12"/>
  <g id="svg_13"/>
  <g id="svg_14"/>
  <g id="svg_15"/>
  <g id="svg_16"/>
  <g id="svg_17"/>
 </g>
</svg>