<svg width="485.3" height="485.3" xmlns="http://www.w3.org/2000/svg">

 <g>
  <title>background</title>
  <rect fill="none" id="canvas_background" height="402" width="582" y="-1" x="-1"/>
 </g>
 <g>
  <title>Layer 1</title>
  <g id="svg_1">
   <g fill="white" id="svg_2">
    <g id="svg_3">
     <path id="svg_4" d="m349.6,28.95c-36.3,0 -70.5,14.2 -96.2,39.9l-10.6,10.6l-10.8,-10.8c-25.7,-25.7 -59.9,-39.9 -96.2,-39.9c-36.2,0 -70.3,14.1 -96,39.8s-39.8,59.8 -39.8,96.1s14.2,70.4 39.9,96.1l190.5,190.5l0.4,0.4c3.3,3.3 7.7,4.9 12,4.9c4.4,0 8.8,-1.7 12.1,-5l190.5,-190.5c25.7,-25.7 39.9,-59.8 39.9,-96.1s-14.1,-70.5 -39.8,-96.1c-25.6,-25.8 -59.7,-39.9 -95.9,-39.9zm71.6,207.8l-178.3,178.4l-178.7,-178.7c-19.2,-19.2 -29.8,-44.7 -29.9,-71.9c0,-27.1 10.5,-52.6 29.7,-71.8c19.2,-19.1 44.7,-29.7 71.7,-29.7c27.2,0 52.7,10.6 72,29.9l22.9,22.9c6.4,6.4 17.8,6.4 24.3,0l22.8,-22.8c19.2,-19.2 44.8,-29.8 71.9,-29.8s52.6,10.6 71.8,29.8c19.2,19.2 29.8,44.7 29.7,71.9c0,27.1 -10.6,52.6 -29.9,71.8z"/>
    </g>
   </g>
   <g id="svg_5"/>
   <g id="svg_6"/>
   <g id="svg_7"/>
   <g id="svg_8"/>
   <g id="svg_9"/>
   <g id="svg_10"/>
   <g id="svg_11"/>
   <g id="svg_12"/>
   <g id="svg_13"/>
   <g id="svg_14"/>
   <g id="svg_15"/>
   <g id="svg_16"/>
   <g id="svg_17"/>
   <g id="svg_18"/>
   <g id="svg_19"/>
  </g>
  <g id="svg_20"/>
  <g id="svg_21"/>
  <g id="svg_22"/>
  <g id="svg_23"/>
  <g id="svg_24"/>
  <g id="svg_25"/>
  <g id="svg_26"/>
  <g id="svg_27"/>
  <g id="svg_28"/>
  <g id="svg_29"/>
  <g id="svg_30"/>
  <g id="svg_31"/>
  <g id="svg_32"/>
  <g id="svg_33"/>
  <g id="svg_34"/>
 </g>
</svg>