<svg id="Layer_1" data-name="Layer 1" xmlns="http://www.w3.org/2000/svg" viewBox="0 0 488.9 488.9"><defs><style>.cls-1{fill:#989898;}</style></defs><path class="cls-1" d="M421.3,231a20.8,20.8,0,0,0-41.6,0A134.89,134.89,0,0,1,266.3,364.5V316.9a90.83,90.83,0,0,0,68.7-88V89.5a89.5,89.5,0,0,0-179,0V229.9a89.47,89.47,0,0,0,68.7,87v47.8A134.91,134.91,0,0,1,109.2,230.9a20.8,20.8,0,1,0-41.6,0c0,90.4,69.1,165.4,157.1,174.8v41.6h-26a20.8,20.8,0,0,0,0,41.6h93.6a20.8,20.8,0,1,0,0-41.6h-26V405.2C352.3,394,419.3,320,421.3,231Zm-224.8-2.1V89.5a48.9,48.9,0,0,1,97.8,0V228.9a48.9,48.9,0,0,1-97.8,0Z"/></svg>