<svg width="58.752" height="58.752" xmlns="http://www.w3.org/2000/svg">

 <g>
  <title>background</title>
  <rect fill="none" id="canvas_background" height="402" width="582" y="-1" x="-1"/>
 </g>
 <g>
  <title>Layer 1</title>
  <g id="svg_1">
   <path fill="white" id="svg_2" d="m52.524,23.925l-40.017,-23.101c-1.907,-1.1 -4.376,-1.097 -6.276,0c-1.938,1.116 -3.143,3.201 -3.143,5.44l0,46.205c0,2.24 1.204,4.325 3.131,5.435c0.953,0.555 2.042,0.848 3.149,0.848c1.104,0 2.192,-0.292 3.141,-0.843l40.017,-23.103c1.936,-1.119 3.138,-3.203 3.138,-5.439c-0.001,-2.233 -1.202,-4.317 -3.14,-5.442zm-3,5.687l-40.02,23.104c-0.082,0.047 -0.18,0.052 -0.279,-0.005c-0.084,-0.049 -0.137,-0.142 -0.137,-0.242l0,-46.206c0,-0.1 0.052,-0.192 0.14,-0.243c0.042,-0.025 0.09,-0.038 0.139,-0.038c0.051,0 0.099,0.013 0.142,0.038l40.01,23.098c0.089,0.052 0.145,0.147 0.145,0.249c-0.001,0.103 -0.053,0.194 -0.14,0.245z"/>
  </g>
  <g id="svg_3"/>
  <g id="svg_4"/>
  <g id="svg_5"/>
  <g id="svg_6"/>
  <g id="svg_7"/>
  <g id="svg_8"/>
  <g id="svg_9"/>
  <g id="svg_10"/>
  <g id="svg_11"/>
  <g id="svg_12"/>
  <g id="svg_13"/>
  <g id="svg_14"/>
  <g id="svg_15"/>
  <g id="svg_16"/>
  <g id="svg_17"/>
 </g>
</svg>