<svg width="29.999999999999996" height="29.999999999999996" xmlns="http://www.w3.org/2000/svg">

 <g>
  <title>background</title>
  <rect fill="none" id="canvas_background" height="402" width="582" y="-1" x="-1"/>
 </g>
 <g>
  <title>Layer 1</title>
  <path fill="#ffffff" id="svg_1" d="m13,3c-5.511,0 -10,4.489 -10,10c0,5.511 4.489,10 10,10c2.39651,0 4.59738,-0.85101 6.32227,-2.26367l5.9707,5.9707a1.0001,1.0001 0 1 0 1.41406,-1.41406l-5.9707,-5.9707c1.41266,-1.72489 2.26367,-3.92576 2.26367,-6.32227c0,-5.511 -4.489,-10 -10,-10zm0,2c4.43012,0 8,3.56988 8,8c0,4.43012 -3.56988,8 -8,8c-4.43012,0 -8,-3.56988 -8,-8c0,-4.43012 3.56988,-8 8,-8z"/>
 </g>
</svg>